<svg xmlns="http://www.w3.org/2000/svg" viewBox="0 0 800 300">
  <rect width="800" height="300" fill="#f0f4f1"/>
  <!-- Article cards -->
  <rect x="100" y="40" width="180" height="220" rx="8" fill="none" stroke="#1a5632" stroke-width="2"/>
  <rect x="110" y="50" width="160" height="80" rx="4" fill="#1a5632" opacity="0.06"/>
  <line x1="120" y1="150" x2="270" y2="150" stroke="#1a5632" stroke-width="2" opacity="0.2"/>
  <line x1="120" y1="170" x2="250" y2="170" stroke="#1a5632" stroke-width="1.5" opacity="0.15"/>
  <line x1="120" y1="190" x2="260" y2="190" stroke="#1a5632" stroke-width="1.5" opacity="0.15"/>
  <line x1="120" y1="210" x2="220" y2="210" stroke="#1a5632" stroke-width="1.5" opacity="0.15"/>
  <rect x="310" y="40" width="180" height="220" rx="8" fill="none" stroke="#1a5632" stroke-width="2"/>
  <rect x="320" y="50" width="160" height="80" rx="4" fill="#1a5632" opacity="0.06"/>
  <line x1="330" y1="150" x2="480" y2="150" stroke="#1a5632" stroke-width="2" opacity="0.2"/>
  <line x1="330" y1="170" x2="460" y2="170" stroke="#1a5632" stroke-width="1.5" opacity="0.15"/>
  <line x1="330" y1="190" x2="470" y2="190" stroke="#1a5632" stroke-width="1.5" opacity="0.15"/>
  <line x1="330" y1="210" x2="430" y2="210" stroke="#1a5632" stroke-width="1.5" opacity="0.15"/>
  <rect x="520" y="40" width="180" height="220" rx="8" fill="none" stroke="#1a5632" stroke-width="2"/>
  <rect x="530" y="50" width="160" height="80" rx="4" fill="#e8491d" opacity="0.06"/>
  <line x1="540" y1="150" x2="690" y2="150" stroke="#1a5632" stroke-width="2" opacity="0.2"/>
  <line x1="540" y1="170" x2="670" y2="170" stroke="#1a5632" stroke-width="1.5" opacity="0.15"/>
  <line x1="540" y1="190" x2="680" y2="190" stroke="#1a5632" stroke-width="1.5" opacity="0.15"/>
  <line x1="540" y1="210" x2="640" y2="210" stroke="#1a5632" stroke-width="1.5" opacity="0.15"/>
</svg>